<svg width="354" height="55" viewBox="0 0 354 55" fill="none" xmlns="http://www.w3.org/2000/svg">
<path d="M19.4 3.456C24.728 3.456 29.384 4.512 33.368 6.624C37.352 8.736 40.424 11.712 42.584 15.552C44.792 19.344 45.896 23.736 45.896 28.728C45.896 33.672 44.792 38.064 42.584 41.904C40.424 45.744 37.328 48.72 33.296 50.832C29.312 52.944 24.68 54 19.4 54H0.464V3.456H19.4ZM18.608 43.344C23.264 43.344 26.888 42.072 29.48 39.528C32.072 36.984 33.368 33.384 33.368 28.728C33.368 24.072 32.072 20.448 29.48 17.856C26.888 15.264 23.264 13.968 18.608 13.968H12.776V43.344H18.608ZM65.0885 20.52C66.5285 18.312 68.3285 16.584 70.4885 15.336C72.6485 14.04 75.0485 13.392 77.6885 13.392V26.424H74.3045C71.2325 26.424 68.9285 27.096 67.3925 28.44C65.8565 29.736 65.0885 32.04 65.0885 35.352V54H52.7765V13.824H65.0885V20.52ZM101.861 54.576C97.9254 54.576 94.3734 53.736 91.2054 52.056C88.0854 50.376 85.6134 47.976 83.7894 44.856C82.0134 41.736 81.1254 38.088 81.1254 33.912C81.1254 29.784 82.0374 26.16 83.8614 23.04C85.6854 19.872 88.1814 17.448 91.3494 15.768C94.5174 14.088 98.0694 13.248 102.005 13.248C105.941 13.248 109.493 14.088 112.661 15.768C115.829 17.448 118.325 19.872 120.149 23.04C121.973 26.16 122.885 29.784 122.885 33.912C122.885 38.04 121.949 41.688 120.077 44.856C118.253 47.976 115.733 50.376 112.517 52.056C109.349 53.736 105.797 54.576 101.861 54.576ZM101.861 43.92C104.213 43.92 106.205 43.056 107.837 41.328C109.517 39.6 110.357 37.128 110.357 33.912C110.357 30.696 109.541 28.224 107.909 26.496C106.325 24.768 104.357 23.904 102.005 23.904C99.6054 23.904 97.6134 24.768 96.0294 26.496C94.4454 28.176 93.6534 30.648 93.6534 33.912C93.6534 37.128 94.4214 39.6 95.9574 41.328C97.5414 43.056 99.5094 43.92 101.861 43.92Z" fill="#AE0000"/>
<path d="M174.633 54H162.321L141.729 22.824V54H129.417V3.456H141.729L162.321 34.776V3.456H174.633V54Z" fill="url(#paint0_linear_203_6)"/>
<path d="M221.43 33.264C221.43 34.416 221.358 35.616 221.214 36.864H193.35C193.542 39.36 194.334 41.28 195.726 42.624C197.166 43.92 198.918 44.568 200.982 44.568C204.054 44.568 206.19 43.272 207.39 40.68H220.494C219.822 43.32 218.598 45.696 216.822 47.808C215.094 49.92 212.91 51.576 210.27 52.776C207.63 53.976 204.678 54.576 201.414 54.576C197.478 54.576 193.974 53.736 190.902 52.056C187.83 50.376 185.43 47.976 183.702 44.856C181.974 41.736 181.11 38.088 181.11 33.912C181.11 29.736 181.95 26.088 183.63 22.968C185.358 19.848 187.758 17.448 190.83 15.768C193.902 14.088 197.43 13.248 201.414 13.248C205.302 13.248 208.758 14.064 211.782 15.696C214.806 17.328 217.158 19.656 218.838 22.68C220.566 25.704 221.43 29.232 221.43 33.264ZM208.83 30.024C208.83 27.912 208.11 26.232 206.67 24.984C205.23 23.736 203.43 23.112 201.27 23.112C199.206 23.112 197.454 23.712 196.014 24.912C194.622 26.112 193.758 27.816 193.422 30.024H208.83ZM265.797 33.264C265.797 34.416 265.725 35.616 265.581 36.864H237.717C237.909 39.36 238.701 41.28 240.093 42.624C241.533 43.92 243.285 44.568 245.349 44.568C248.421 44.568 250.557 43.272 251.757 40.68H264.861C264.189 43.32 262.965 45.696 261.189 47.808C259.461 49.92 257.277 51.576 254.637 52.776C251.997 53.976 249.045 54.576 245.781 54.576C241.845 54.576 238.341 53.736 235.269 52.056C232.197 50.376 229.797 47.976 228.069 44.856C226.341 41.736 225.477 38.088 225.477 33.912C225.477 29.736 226.317 26.088 227.997 22.968C229.725 19.848 232.125 17.448 235.197 15.768C238.269 14.088 241.797 13.248 245.781 13.248C249.669 13.248 253.125 14.064 256.149 15.696C259.173 17.328 261.525 19.656 263.205 22.68C264.933 25.704 265.797 29.232 265.797 33.264ZM253.197 30.024C253.197 27.912 252.477 26.232 251.037 24.984C249.597 23.736 247.797 23.112 245.637 23.112C243.573 23.112 241.821 23.712 240.381 24.912C238.989 26.112 238.125 27.816 237.789 30.024H253.197ZM269.844 33.84C269.844 29.712 270.612 26.088 272.148 22.968C273.732 19.848 275.868 17.448 278.556 15.768C281.244 14.088 284.244 13.248 287.556 13.248C290.196 13.248 292.596 13.8 294.756 14.904C296.964 16.008 298.692 17.496 299.94 19.368V0.719999H312.252V54H299.94V48.24C298.788 50.16 297.132 51.696 294.972 52.848C292.86 54 290.388 54.576 287.556 54.576C284.244 54.576 281.244 53.736 278.556 52.056C275.868 50.328 273.732 47.904 272.148 44.784C270.612 41.616 269.844 37.968 269.844 33.84ZM299.94 33.912C299.94 30.84 299.076 28.416 297.348 26.64C295.668 24.864 293.604 23.976 291.156 23.976C288.708 23.976 286.62 24.864 284.892 26.64C283.212 28.368 282.372 30.768 282.372 33.84C282.372 36.912 283.212 39.36 284.892 41.184C286.62 42.96 288.708 43.848 291.156 43.848C293.604 43.848 295.668 42.96 297.348 41.184C299.076 39.408 299.94 36.984 299.94 33.912ZM337.503 54.576C333.999 54.576 330.879 53.976 328.143 52.776C325.407 51.576 323.247 49.944 321.663 47.88C320.079 45.768 319.191 43.416 318.999 40.824H331.167C331.311 42.216 331.959 43.344 333.111 44.208C334.263 45.072 335.679 45.504 337.359 45.504C338.895 45.504 340.071 45.216 340.887 44.64C341.751 44.016 342.183 43.224 342.183 42.264C342.183 41.112 341.583 40.272 340.383 39.744C339.183 39.168 337.239 38.544 334.551 37.872C331.671 37.2 329.271 36.504 327.351 35.784C325.431 35.016 323.775 33.84 322.383 32.256C320.991 30.624 320.295 28.44 320.295 25.704C320.295 23.4 320.919 21.312 322.167 19.44C323.463 17.52 325.335 16.008 327.783 14.904C330.279 13.8 333.231 13.248 336.639 13.248C341.679 13.248 345.639 14.496 348.519 16.992C351.447 19.488 353.127 22.8 353.559 26.928H342.183C341.991 25.536 341.367 24.432 340.311 23.616C339.303 22.8 337.959 22.392 336.279 22.392C334.839 22.392 333.735 22.68 332.967 23.256C332.199 23.784 331.815 24.528 331.815 25.488C331.815 26.64 332.415 27.504 333.615 28.08C334.863 28.656 336.783 29.232 339.375 29.808C342.351 30.576 344.775 31.344 346.647 32.112C348.519 32.832 350.151 34.032 351.543 35.712C352.983 37.344 353.727 39.552 353.775 42.336C353.775 44.688 353.103 46.8 351.759 48.672C350.463 50.496 348.567 51.936 346.071 52.992C343.623 54.048 340.767 54.576 337.503 54.576Z" fill="black"/>
<defs>
<linearGradient id="paint0_linear_203_6" x1="180" y1="29" x2="125.5" y2="29" gradientUnits="userSpaceOnUse">
<stop/>
<stop offset="1" stop-color="#AE0000"/>
</linearGradient>
</defs>
</svg>
