<svg width="470" height="78" viewBox="0 0 470 78" fill="none" xmlns="http://www.w3.org/2000/svg">
<g filter="url(#filter0_i_205_2)">
<ellipse cx="41" cy="39" rx="41" ry="39" fill="#F6F6F6"/>
</g>
<path d="M125.4 13.456C130.728 13.456 135.384 14.512 139.368 16.624C143.352 18.736 146.424 21.712 148.584 25.552C150.792 29.344 151.896 33.736 151.896 38.728C151.896 43.672 150.792 48.064 148.584 51.904C146.424 55.744 143.328 58.72 139.296 60.832C135.312 62.944 130.68 64 125.4 64H106.464V13.456H125.4ZM124.608 53.344C129.264 53.344 132.888 52.072 135.48 49.528C138.072 46.984 139.368 43.384 139.368 38.728C139.368 34.072 138.072 30.448 135.48 27.856C132.888 25.264 129.264 23.968 124.608 23.968H118.776V53.344H124.608ZM171.089 30.52C172.529 28.312 174.329 26.584 176.489 25.336C178.649 24.04 181.049 23.392 183.689 23.392V36.424H180.305C177.233 36.424 174.929 37.096 173.393 38.44C171.857 39.736 171.089 42.04 171.089 45.352V64H158.777V23.824H171.089V30.52ZM207.861 64.576C203.925 64.576 200.373 63.736 197.205 62.056C194.085 60.376 191.613 57.976 189.789 54.856C188.013 51.736 187.125 48.088 187.125 43.912C187.125 39.784 188.037 36.16 189.861 33.04C191.685 29.872 194.181 27.448 197.349 25.768C200.517 24.088 204.069 23.248 208.005 23.248C211.941 23.248 215.493 24.088 218.661 25.768C221.829 27.448 224.325 29.872 226.149 33.04C227.973 36.16 228.885 39.784 228.885 43.912C228.885 48.04 227.949 51.688 226.077 54.856C224.253 57.976 221.733 60.376 218.517 62.056C215.349 63.736 211.797 64.576 207.861 64.576ZM207.861 53.92C210.213 53.92 212.205 53.056 213.837 51.328C215.517 49.6 216.357 47.128 216.357 43.912C216.357 40.696 215.541 38.224 213.909 36.496C212.325 34.768 210.357 33.904 208.005 33.904C205.605 33.904 203.613 34.768 202.029 36.496C200.445 38.176 199.653 40.648 199.653 43.912C199.653 47.128 200.421 49.6 201.957 51.328C203.541 53.056 205.509 53.92 207.861 53.92Z" fill="#AE0000"/>
<path d="M280.633 64H268.321L247.729 32.824V64H235.417V13.456H247.729L268.321 44.776V13.456H280.633V64Z" fill="url(#paint0_linear_205_2)"/>
<path d="M327.43 43.264C327.43 44.416 327.358 45.616 327.214 46.864H299.35C299.542 49.36 300.334 51.28 301.726 52.624C303.166 53.92 304.918 54.568 306.982 54.568C310.054 54.568 312.19 53.272 313.39 50.68H326.494C325.822 53.32 324.598 55.696 322.822 57.808C321.094 59.92 318.91 61.576 316.27 62.776C313.63 63.976 310.678 64.576 307.414 64.576C303.478 64.576 299.974 63.736 296.902 62.056C293.83 60.376 291.43 57.976 289.702 54.856C287.974 51.736 287.11 48.088 287.11 43.912C287.11 39.736 287.95 36.088 289.63 32.968C291.358 29.848 293.758 27.448 296.83 25.768C299.902 24.088 303.43 23.248 307.414 23.248C311.302 23.248 314.758 24.064 317.782 25.696C320.806 27.328 323.158 29.656 324.838 32.68C326.566 35.704 327.43 39.232 327.43 43.264ZM314.83 40.024C314.83 37.912 314.11 36.232 312.67 34.984C311.23 33.736 309.43 33.112 307.27 33.112C305.206 33.112 303.454 33.712 302.014 34.912C300.622 36.112 299.758 37.816 299.422 40.024H314.83ZM371.797 43.264C371.797 44.416 371.725 45.616 371.581 46.864H343.717C343.909 49.36 344.701 51.28 346.093 52.624C347.533 53.92 349.285 54.568 351.349 54.568C354.421 54.568 356.557 53.272 357.757 50.68H370.861C370.189 53.32 368.965 55.696 367.189 57.808C365.461 59.92 363.277 61.576 360.637 62.776C357.997 63.976 355.045 64.576 351.781 64.576C347.845 64.576 344.341 63.736 341.269 62.056C338.197 60.376 335.797 57.976 334.069 54.856C332.341 51.736 331.477 48.088 331.477 43.912C331.477 39.736 332.317 36.088 333.997 32.968C335.725 29.848 338.125 27.448 341.197 25.768C344.269 24.088 347.797 23.248 351.781 23.248C355.669 23.248 359.125 24.064 362.149 25.696C365.173 27.328 367.525 29.656 369.205 32.68C370.933 35.704 371.797 39.232 371.797 43.264ZM359.197 40.024C359.197 37.912 358.477 36.232 357.037 34.984C355.597 33.736 353.797 33.112 351.637 33.112C349.573 33.112 347.821 33.712 346.381 34.912C344.989 36.112 344.125 37.816 343.789 40.024H359.197ZM375.844 43.84C375.844 39.712 376.612 36.088 378.148 32.968C379.732 29.848 381.868 27.448 384.556 25.768C387.244 24.088 390.244 23.248 393.556 23.248C396.196 23.248 398.596 23.8 400.756 24.904C402.964 26.008 404.692 27.496 405.94 29.368V10.72H418.252V64H405.94V58.24C404.788 60.16 403.132 61.696 400.972 62.848C398.86 64 396.388 64.576 393.556 64.576C390.244 64.576 387.244 63.736 384.556 62.056C381.868 60.328 379.732 57.904 378.148 54.784C376.612 51.616 375.844 47.968 375.844 43.84ZM405.94 43.912C405.94 40.84 405.076 38.416 403.348 36.64C401.668 34.864 399.604 33.976 397.156 33.976C394.708 33.976 392.62 34.864 390.892 36.64C389.212 38.368 388.372 40.768 388.372 43.84C388.372 46.912 389.212 49.36 390.892 51.184C392.62 52.96 394.708 53.848 397.156 53.848C399.604 53.848 401.668 52.96 403.348 51.184C405.076 49.408 405.94 46.984 405.94 43.912ZM443.503 64.576C439.999 64.576 436.879 63.976 434.143 62.776C431.407 61.576 429.247 59.944 427.663 57.88C426.079 55.768 425.191 53.416 424.999 50.824H437.167C437.311 52.216 437.959 53.344 439.111 54.208C440.263 55.072 441.679 55.504 443.359 55.504C444.895 55.504 446.071 55.216 446.887 54.64C447.751 54.016 448.183 53.224 448.183 52.264C448.183 51.112 447.583 50.272 446.383 49.744C445.183 49.168 443.239 48.544 440.551 47.872C437.671 47.2 435.271 46.504 433.351 45.784C431.431 45.016 429.775 43.84 428.383 42.256C426.991 40.624 426.295 38.44 426.295 35.704C426.295 33.4 426.919 31.312 428.167 29.44C429.463 27.52 431.335 26.008 433.783 24.904C436.279 23.8 439.231 23.248 442.639 23.248C447.679 23.248 451.639 24.496 454.519 26.992C457.447 29.488 459.127 32.8 459.559 36.928H448.183C447.991 35.536 447.367 34.432 446.311 33.616C445.303 32.8 443.959 32.392 442.279 32.392C440.839 32.392 439.735 32.68 438.967 33.256C438.199 33.784 437.815 34.528 437.815 35.488C437.815 36.64 438.415 37.504 439.615 38.08C440.863 38.656 442.783 39.232 445.375 39.808C448.351 40.576 450.775 41.344 452.647 42.112C454.519 42.832 456.151 44.032 457.543 45.712C458.983 47.344 459.727 49.552 459.775 52.336C459.775 54.688 459.103 56.8 457.759 58.672C456.463 60.496 454.567 61.936 452.071 62.992C449.623 64.048 446.767 64.576 443.503 64.576Z" fill="#EDEDED"/>
<path d="M33.9558 61.3793C32.5209 61.3723 31.104 61.1146 29.7978 60.6231C28.3851 60.1077 27.1814 59.2668 26.3307 58.2007C25.4799 57.1346 25.018 55.8884 25 54.6109V22.7728C25.018 21.4953 25.4799 20.2491 26.3307 19.183C27.1814 18.1169 28.3851 17.276 29.7978 16.7607C31.4232 16.1253 33.2317 15.8806 35.0171 16.0544C36.8025 16.2282 38.493 16.8136 39.8959 17.7438L63.1993 33.6628C64.1131 34.2648 64.8511 35.0297 65.3584 35.9004C65.8656 36.7711 66.129 37.7253 66.129 38.6919C66.129 39.6585 65.8656 40.6126 65.3584 41.4833C64.8511 42.354 64.1131 43.1189 63.1993 43.7209L39.8959 59.6399C38.2161 60.7672 36.1185 61.3814 33.9558 61.3793ZM33.9558 23.5669V53.4387L56.1626 38.6919L33.9558 23.5669Z" fill="url(#paint1_linear_205_2)"/>
<defs>
<filter id="filter0_i_205_2" x="0" y="0" width="82" height="79" filterUnits="userSpaceOnUse" color-interpolation-filters="sRGB">
<feFlood flood-opacity="0" result="BackgroundImageFix"/>
<feBlend mode="normal" in="SourceGraphic" in2="BackgroundImageFix" result="shape"/>
<feColorMatrix in="SourceAlpha" type="matrix" values="0 0 0 0 0 0 0 0 0 0 0 0 0 0 0 0 0 0 127 0" result="hardAlpha"/>
<feMorphology radius="2" operator="erode" in="SourceAlpha" result="effect1_innerShadow_205_2"/>
<feOffset dy="1"/>
<feGaussianBlur stdDeviation="5.5"/>
<feComposite in2="hardAlpha" operator="arithmetic" k2="-1" k3="1"/>
<feColorMatrix type="matrix" values="0 0 0 0 0 0 0 0 0 0 0 0 0 0 0 0 0 0 0.42 0"/>
<feBlend mode="normal" in2="shape" result="effect1_innerShadow_205_2"/>
</filter>
<linearGradient id="paint0_linear_205_2" x1="286" y1="39" x2="231.5" y2="39" gradientUnits="userSpaceOnUse">
<stop stop-color="#EDEDED"/>
<stop offset="1" stop-color="#AE0000"/>
</linearGradient>
<linearGradient id="paint1_linear_205_2" x1="45.5645" y1="16" x2="45.5645" y2="61.3793" gradientUnits="userSpaceOnUse">
<stop stop-color="#AE0000"/>
<stop offset="1"/>
</linearGradient>
</defs>
</svg>
