<svg width="82" height="78" viewBox="0 0 82 78" fill="none" xmlns="http://www.w3.org/2000/svg">
<g filter="url(#filter0_i_203_12)">
<ellipse cx="41" cy="39" rx="41" ry="39" fill="#F6F6F6"/>
</g>
<path d="M33.9558 61.3793C32.5209 61.3723 31.104 61.1146 29.7978 60.6231C28.3851 60.1077 27.1814 59.2668 26.3307 58.2007C25.4799 57.1346 25.018 55.8884 25 54.6109V22.7728C25.018 21.4953 25.4799 20.2491 26.3307 19.183C27.1814 18.1169 28.3851 17.276 29.7978 16.7607C31.4232 16.1253 33.2317 15.8806 35.0171 16.0544C36.8025 16.2282 38.493 16.8136 39.8959 17.7438L63.1993 33.6628C64.1131 34.2648 64.8511 35.0297 65.3584 35.9004C65.8656 36.7711 66.129 37.7253 66.129 38.6919C66.129 39.6585 65.8656 40.6126 65.3584 41.4833C64.8511 42.354 64.1131 43.1189 63.1993 43.7209L39.8959 59.6399C38.2161 60.7672 36.1185 61.3814 33.9558 61.3793ZM33.9558 23.5669V53.4387L56.1626 38.6919L33.9558 23.5669Z" fill="url(#paint0_linear_203_12)"/>
<defs>
<filter id="filter0_i_203_12" x="0" y="0" width="82" height="79" filterUnits="userSpaceOnUse" color-interpolation-filters="sRGB">
<feFlood flood-opacity="0" result="BackgroundImageFix"/>
<feBlend mode="normal" in="SourceGraphic" in2="BackgroundImageFix" result="shape"/>
<feColorMatrix in="SourceAlpha" type="matrix" values="0 0 0 0 0 0 0 0 0 0 0 0 0 0 0 0 0 0 127 0" result="hardAlpha"/>
<feMorphology radius="2" operator="erode" in="SourceAlpha" result="effect1_innerShadow_203_12"/>
<feOffset dy="1"/>
<feGaussianBlur stdDeviation="5.5"/>
<feComposite in2="hardAlpha" operator="arithmetic" k2="-1" k3="1"/>
<feColorMatrix type="matrix" values="0 0 0 0 0 0 0 0 0 0 0 0 0 0 0 0 0 0 0.42 0"/>
<feBlend mode="normal" in2="shape" result="effect1_innerShadow_203_12"/>
</filter>
<linearGradient id="paint0_linear_203_12" x1="45.5645" y1="16" x2="45.5645" y2="61.3793" gradientUnits="userSpaceOnUse">
<stop stop-color="#AE0000"/>
<stop offset="1"/>
</linearGradient>
</defs>
</svg>
